<!-- icon666.com - MILLIONS vector ICONS FREE --><svg id="Capa_1" enable-background="new 0 0 512 512" viewBox="0 0 512 512" xmlns="http://www.w3.org/2000/svg"><g><g><path d="m451.983 91.288c-38.233-45.446-91.278-76.362-149.362-87.052-5.43-.999-10.645 2.593-11.645 8.025s2.593 10.645 8.025 11.645c111.831 20.582 192.999 118.191 192.999 232.093 0 63.038-24.548 122.303-69.123 166.877-44.574 44.575-103.839 69.123-166.877 69.123-43.073 0-85.223-11.716-121.893-33.88-4.241-2.563-9.719-1.635-12.877 2.183-16.578 20.034-40.981 31.524-66.952 31.524-9.485 0-18.676-1.481-27.461-4.416 20.56-24.659 34.133-54.072 39.507-85.859.447-2.641-.185-5.351-1.753-7.523-29.159-40.365-44.571-88.094-44.571-138.029 0-113.812 81.091-211.407 192.817-232.06 5.431-1.004 9.02-6.22 8.016-11.651s-6.22-9.019-11.651-8.016c-121.208 22.406-209.182 128.273-209.182 251.727 0 52.729 15.848 103.198 45.872 146.239-6.029 30.927-20.853 59.173-43.031 81.912-2.214 2.271-3.221 5.457-2.712 8.587s2.473 5.833 5.292 7.286c14.995 7.721 31.889 11.802 48.856 11.802 29.09 0 56.581-11.717 76.659-32.412 38.069 21.344 81.126 32.585 125.063 32.585 68.38 0 132.667-26.628 181.019-74.98 48.354-48.352 74.982-112.639 74.982-181.019 0-60.211-21.314-118.707-60.017-164.711z"></path><path d="m206 306.182c5.523 0 10-4.477 10-10v-80c0-5.523-4.477-10-10-10s-10 4.477-10 10v28.628h-24v-28.628c0-5.523-4.477-10-10-10s-10 4.477-10 10v80c0 5.523 4.477 10 10 10s10-4.477 10-10v-31.372h24v31.372c0 5.523 4.477 10 10 10z"></path><path d="m239 305.818h30c5.523 0 10-4.477 10-10s-4.477-10-10-10h-20v-19.635h17.788c5.523 0 10-4.477 10-10s-4.477-10-10-10h-17.788v-19.635h20c5.523 0 10-4.477 10-10s-4.477-10-10-10h-30c-5.523 0-10 4.477-10 10v79.27c0 5.523 4.477 10 10 10z"></path><path d="m399.613 226.548c5.523 0 10-4.477 10-10s-4.477-10-10-10h-30c-5.523 0-10 4.477-10 10v79.27c0 5.523 4.477 10 10 10h30c5.523 0 10-4.477 10-10s-4.477-10-10-10h-20v-19.635h17.788c5.523 0 10-4.477 10-10s-4.477-10-10-10h-17.788v-19.635z"></path><path d="m120.149 214.61-7.149 40.965-11.346-42c-1.44-5.332-6.93-8.484-12.262-7.046-3.816 1.031-6.506 4.139-7.205 7.777l-11.204 41.279-7.131-41.111c-.944-5.441-6.121-9.088-11.562-8.144s-9.088 6.121-8.144 11.562c0 0 13.844 79.649 13.973 80.063 1.535 4.929 5.965 8.228 11.038 8.228h.072c5.104-.032 9.53-3.395 11.012-8.369.023-.078 11.755-43.297 11.755-43.297s11.704 43.317 11.742 43.438c1.535 4.929 5.965 8.228 11.038 8.228h.07c5.104-.031 9.53-3.393 11.014-8.366.111-.374 13.99-79.768 13.99-79.768.95-5.44-2.691-10.621-8.132-11.57-5.444-.95-10.619 2.691-11.569 8.131z"></path><path d="m298 306.182c5.523 0 10-4.477 10-10v-19.236l22.746 25.843c1.977 2.246 4.737 3.393 7.511 3.393 2.346 0 4.703-.821 6.603-2.493 4.146-3.649 4.548-9.968.9-14.114l-20.332-23.101c13.185-3.798 22.825-15.583 22.825-29.501 0-16.979-14.341-30.792-31.968-30.792h-18.259c-.004 0-.009.001-.013.001s-.008-.001-.013-.001c-5.523 0-10 4.477-10 10v80c0 5.524 4.477 10.001 10 10.001zm18.285-80c6.487 0 11.968 4.942 11.968 10.792 0 5.849-5.48 10.791-11.968 10.791-2.168 0-5.201.013-8.167.028-.02-4.026-.049-17.387-.061-21.611z"></path><path d="m457.547 259.15c9.665-5.49 15.175-15.793 14.379-26.889-.995-13.881-11.759-24.943-25.593-26.303-15.313-1.501-28.979 9.218-31.1 24.416-.764 5.47 3.052 10.522 8.522 11.286 5.465.765 10.522-3.052 11.286-8.522.633-4.531 4.729-7.732 9.335-7.275 4.042.397 7.309 3.763 7.6 7.828.239 3.332-1.412 6.424-4.308 8.069-8.752 4.972-14.189 14.18-14.189 24.031 0 5.523 4.477 10 10 10s10-4.477 10-10c0-2.713 1.521-5.194 4.068-6.641z"></path><circle cx="256" cy="10.001" r="10"></circle><circle cx="443.483" cy="296.056" r="10"></circle></g></g></svg>